<svg width="93" height="16" viewBox="0 0 93 16" fill="none" xmlns="http://www.w3.org/2000/svg">
<path d="M10.2458 0.112381V10.1691C10.2458 13.8566 8.57097 15.9797 5.12288 15.9797C2.16737 15.9797 0.0985169 13.9683 0 11.1748L3.34957 10.5043C3.44809 11.3983 3.94068 12.2922 5.12288 12.2922C6.50212 12.2922 6.89618 11.0631 6.89618 10.1691V0.112381H10.2458Z" fill="white"/>
<path d="M21.2796 12.0681V15.6438H12.6101V0H21.0826V3.57572H15.9597V6.03404H20.4915V9.49802H15.9597V12.0681H21.2796Z" fill="white"/>
<path d="M31.9195 12.0681V15.6438H23.25V0H31.7225V3.57572H26.5996V6.03404H31.1314V9.49802H26.5996V12.0681H31.9195Z" fill="white"/>
<path d="M43.1505 3.68811H39.8995V15.7562H36.5499V3.68811H33.2988V0.112381H43.1505V3.68811Z" fill="white"/>
<path d="M60.0954 0.112381V15.7562H56.7459V6.48165L53.1992 13.1861H51.9185L48.2734 6.48165V15.7562H44.9238V0.112381H48.4704L52.5096 7.71081L56.5488 0.112381H60.0954Z" fill="white"/>
<path d="M71.1292 12.0681V15.6438H62.4597V0H70.9322V3.57572H65.8093V6.03404H70.3411V9.49802H65.8093V12.0681H71.1292Z" fill="white"/>
<path d="M81.7691 12.0681V15.6438H73.0996V0H81.572V3.57572H76.4492V6.03404H80.9809V9.49802H76.4492V12.0681H81.7691Z" fill="white"/>
<path d="M93.0001 3.68811H89.7491V15.7562H86.3995V3.68811H83.1484V0.112381H93.0001V3.68811Z" fill="white"/>
</svg>
